<svg xmlns="http://www.w3.org/2000/svg" version="1.1" xmlns:xlink="http://www.w3.org/1999/xlink" xmlns:svgjs="http://svgjs.dev/svgjs" width="2000" height="1247" viewBox="0 0 2000 1247"><g transform="matrix(1,0,0,1,-1.2121212121212466,0.504858299595071)"><svg viewBox="0 0 396 247" data-background-color="#ffffff" preserveAspectRatio="xMidYMid meet" height="1247" width="2000" xmlns="http://www.w3.org/2000/svg" xmlns:xlink="http://www.w3.org/1999/xlink"><g id="tight-bounds" transform="matrix(1,0,0,1,0.2400000000000091,-0.09999999999999432)"><svg viewBox="0 0 395.52 247.2" height="247.2" width="395.52"><g><svg></svg></g><g><svg viewBox="0 0 395.52 247.2" height="247.2" width="395.52"><g transform="matrix(1,0,0,1,39.55199999999999,97.39953597048574)"><svg viewBox="0 0 316.416 52.400928059028494" height="52.400928059028494" width="316.416"><g><svg viewBox="0 0 316.416 52.400928059028494" height="52.400928059028494" width="316.416"><g><svg viewBox="0 0 316.416 52.400928059028494" height="52.400928059028494" width="316.416"><g id="textblocktransform"><svg viewBox="0 0 316.416 52.400928059028494" height="52.400928059028494" width="316.416" id="textblock"><g><svg viewBox="0 0 316.416 52.400928059028494" height="52.400928059028494" width="316.416"><g transform="matrix(1,0,0,1,0,0)"><svg width="316.416" viewBox="0.35 -39.65 243.93 40.4" height="52.400928059028494" data-palette-color="#000000"><path d="M11.75-35.25Q14.75-35.25 17.05-34.2 19.35-33.15 21.3-31.05L21.3-31.05 18.35-27.65Q16.8-29.05 15.33-29.75 13.85-30.45 12.2-30.45L12.2-30.45Q10.3-30.45 9.2-29.28 8.1-28.1 8.1-26.2L8.1-26.2Q8.1-24.3 9.25-23.1 10.4-21.9 13.75-20.6L13.75-20.6Q18.05-18.85 20.08-16.5 22.1-14.15 22.1-9.85L22.1-9.85Q22.1-6.9 20.75-4.48 19.4-2.05 16.88-0.65 14.35 0.75 11 0.75L11 0.75Q7.55 0.75 5-0.48 2.45-1.7 0.35-3.95L0.35-3.95 3.55-7.45Q5.35-5.85 7-5 8.65-4.15 10.6-4.15L10.6-4.15Q12.9-4.15 14.18-5.58 15.45-7 15.45-9.45L15.45-9.45Q15.45-11.6 14.33-12.98 13.2-14.35 10.15-15.5L10.15-15.5Q5.55-17.35 3.53-19.75 1.5-22.15 1.5-25.75L1.5-25.75Q1.5-28.5 2.83-30.65 4.15-32.8 6.5-34.02 8.85-35.25 11.75-35.25L11.75-35.25ZM44.25-26.45L44.25 0 38.9 0 38.6-3.35Q37.35-1.3 35.8-0.28 34.25 0.75 32.2 0.75L32.2 0.75Q29.3 0.75 27.62-1.3 25.95-3.35 25.95-6.65L25.95-6.65 25.95-26.45 32.1-26.45 32.1-7Q32.1-3.9 34.2-3.9L34.2-3.9Q35.4-3.9 36.35-4.83 37.3-5.75 38.1-7.45L38.1-7.45 38.1-26.45 44.25-26.45ZM73.59-27.15Q76.25-27.15 77.84-25.1 79.44-23.05 79.44-19.6L79.44-19.6 79.44 0 73.39 0 73.39-18.95Q73.39-20.85 72.89-21.68 72.39-22.5 71.44-22.5L71.44-22.5Q69.5-22.5 67.69-18.8L67.69-18.8 67.69 0 61.7 0 61.7-18.95Q61.7-22.5 59.8-22.5L59.8-22.5Q57.74-22.5 55.99-18.8L55.99-18.8 55.99 0 49.95 0 49.95-26.45 55.3-26.45 55.7-23.05Q58.3-27.15 61.95-27.15L61.95-27.15Q63.8-27.15 65.14-26 66.5-24.85 67.19-22.75L67.19-22.75Q69.84-27.15 73.59-27.15L73.59-27.15ZM108.59-27.15Q111.24-27.15 112.84-25.1 114.44-23.05 114.44-19.6L114.44-19.6 114.44 0 108.39 0 108.39-18.95Q108.39-20.85 107.89-21.68 107.39-22.5 106.44-22.5L106.44-22.5Q104.49-22.5 102.69-18.8L102.69-18.8 102.69 0 96.69 0 96.69-18.95Q96.69-22.5 94.79-22.5L94.79-22.5Q92.74-22.5 90.99-18.8L90.99-18.8 90.99 0 84.94 0 84.94-26.45 90.29-26.45 90.69-23.05Q93.29-27.15 96.94-27.15L96.94-27.15Q98.79-27.15 100.14-26 101.49-24.85 102.19-22.75L102.19-22.75Q104.84-27.15 108.59-27.15L108.59-27.15ZM136.84-6.4Q136.84-5.1 137.19-4.48 137.54-3.85 138.34-3.45L138.34-3.45 137.09 0.65Q135.04 0.4 133.81-0.45 132.59-1.3 131.99-3.05L131.99-3.05Q129.69 0.75 125.54 0.75L125.54 0.75Q122.24 0.75 120.29-1.48 118.34-3.7 118.34-7.4L118.34-7.4Q118.34-11.7 121.02-13.95 123.69-16.2 128.79-16.2L128.79-16.2 130.84-16.2 130.84-18.05Q130.84-20.55 129.97-21.58 129.09-22.6 127.14-22.6L127.14-22.6Q124.79-22.6 121.29-21.3L121.29-21.3 119.89-25.3Q121.89-26.2 124.04-26.68 126.19-27.15 128.14-27.15L128.14-27.15Q136.84-27.15 136.84-18.35L136.84-18.35 136.84-6.4ZM127.19-3.7Q129.59-3.7 130.84-7L130.84-7 130.84-12.55 129.39-12.55Q126.84-12.55 125.67-11.4 124.49-10.25 124.49-7.85L124.49-7.85Q124.49-5.8 125.19-4.75 125.89-3.7 127.19-3.7L127.19-3.7ZM154.29-27.1Q155.44-27.1 156.34-26.75L156.34-26.75 155.34-20.85Q154.34-21.1 153.49-21.1L153.49-21.1Q151.59-21.1 150.49-19.45 149.39-17.8 148.79-14.55L148.79-14.55 148.79 0 142.64 0 142.64-26.45 147.99-26.45 148.44-21.85Q150.29-27.1 154.29-27.1L154.29-27.1ZM159.19-26.45L165.34-26.45 165.34 0 159.19 0 159.19-26.45ZM162.24-39.65Q163.89-39.65 164.91-38.6 165.94-37.55 165.94-35.9L165.94-35.9Q165.94-34.3 164.91-33.25 163.89-32.2 162.24-32.2L162.24-32.2Q160.59-32.2 159.56-33.25 158.54-34.3 158.54-35.9L158.54-35.9Q158.54-37.55 159.56-38.6 160.59-39.65 162.24-39.65L162.24-39.65ZM169.73-26.45L185.98-26.45 185.98-22 175.43-4.85 186.18-4.85 185.63 0 168.83 0 168.83-4.45 179.38-21.6 169.73-21.6 169.73-26.45ZM208.63-13.85Q208.63-13.4 208.48-11.3L208.48-11.3 194.83-11.3Q195.03-7.2 196.26-5.58 197.48-3.95 199.73-3.95L199.73-3.95Q201.28-3.95 202.53-4.48 203.78-5 205.23-6.15L205.23-6.15 207.78-2.65Q204.28 0.75 199.38 0.75L199.38 0.75Q194.18 0.75 191.41-2.85 188.63-6.45 188.63-13L188.63-13Q188.63-19.55 191.28-23.35 193.93-27.15 198.78-27.15L198.78-27.15Q203.43-27.15 206.03-23.78 208.63-20.4 208.63-13.85L208.63-13.85ZM202.63-15.3L202.63-15.65Q202.63-19.4 201.73-21.13 200.83-22.85 198.83-22.85L198.83-22.85Q196.98-22.85 196.01-21.18 195.03-19.5 194.83-15.3L194.83-15.3 202.63-15.3ZM235.03 0L228.58 0 226.88-8.1 217.98-8.1 216.33 0 209.98 0 218.68-34.55 226.38-34.55 235.03 0ZM222.43-29.7L218.98-12.9 225.93-12.9 222.43-29.7ZM237.93-34.55L244.28-34.55 244.28 0 237.93 0 237.93-34.55Z" opacity="1" transform="matrix(1,0,0,1,0,0)" fill="#000000" class="wordmark-text-0" data-fill-palette-color="primary" id="text-0"></path></svg></g></svg></g></svg></g></svg></g><g></g></svg></g></svg></g><g><path d="M0 247.2v-247.2h395.52v247.2zM390.794 242.474v-237.748h-386.068v237.748z" fill="#000000" fill-rule="nonzero" stroke="none" stroke-width="1" stroke-linecap="butt" stroke-linejoin="miter" stroke-miterlimit="10" stroke-dasharray="" stroke-dashoffset="0" font-family="none" font-weight="none" font-size="none" text-anchor="none" style="mix-blend-mode: normal" data-fill-palette-color="tertiary"></path></g></svg></g><defs></defs></svg><rect width="395.52" height="247.2" fill="none" stroke="none" visibility="hidden"></rect></g></svg></g></svg>